<?xml version="1.0" standalone="no"?>
<!DOCTYPE svg PUBLIC "-//W3C//DTD SVG 20010904//EN"
 "http://www.w3.org/TR/2001/REC-SVG-20010904/DTD/svg10.dtd">
<svg version="1.0" xmlns="http://www.w3.org/2000/svg"
 width="300.000000pt" height="300.000000pt" viewBox="0 0 300.000000 300.000000"
 preserveAspectRatio="xMidYMid meet">
<metadata>
Created by potrace 1.16, written by Peter Selinger 2001-2019
</metadata>
<g transform="translate(0.000000,300.000000) scale(0.100000,-0.100000)"
fill="#000000" stroke="none">
<path d="M1378 2618 c2 -200 5 -368 7 -374 2 -8 15 -9 37 -5 l33 7 3 355 2
356 -25 11 c-63 29 -60 49 -57 -350z"/>
<path d="M1980 2565 l0 -325 403 0 c307 0 407 -3 420 -12 27 -21 67 -106 101
-216 36 -114 55 -130 25 -20 -30 108 -71 206 -102 244 l-28 34 -333 0 c-183 0
-335 2 -337 4 -2 2 -2 123 1 269 l5 265 -30 20 c-57 38 -100 62 -112 62 -10 0
-13 -72 -13 -325z"/>
<path d="M812 2129 l3 -114 323 -3 322 -2 0 35 0 35 -167 2 -168 3 0 65 c0 52
-3 66 -17 72 -10 4 -81 10 -158 14 l-141 7 3 -114z"/>
<path d="M82 1843 c-31 -60 -65 -251 -66 -378 l-1 -70 120 -5 120 -5 -94 -38
c-52 -21 -104 -45 -115 -53 -19 -14 -16 -15 39 -10 33 3 698 5 1478 6 l1417 0
0 28 c0 15 -3 37 -6 50 l-6 22 -364 0 -364 0 0 28 c0 44 -11 51 -83 53 -64 2
-67 3 -61 23 3 12 15 35 25 52 15 25 19 51 19 127 l0 95 -66 4 c-36 1 -68 1
-70 -1 -2 -2 -4 -89 -4 -193 l0 -188 -802 1 c-442 0 -821 4 -843 8 -22 5 -34
9 -26 10 12 1 12 4 -1 19 -28 31 -88 122 -88 131 0 5 -11 23 -25 39 -13 16
-22 32 -18 36 3 3 2 6 -4 6 -6 0 -14 11 -17 25 -4 14 -10 23 -15 21 -5 -3 -8
6 -8 21 0 15 -9 34 -19 42 -12 10 -19 29 -19 49 1 38 -2 40 -16 10 -7 -19 -8
-16 -4 15 6 40 1 47 -13 20z"/>
<path d="M385 1201 c-45 -27 -62 -51 -91 -122 -24 -59 -25 -68 -14 -119 24
-109 99 -272 144 -309 21 -18 28 2 12 35 -10 21 -15 90 -19 234 -5 192 -4 207
15 238 34 56 10 78 -47 43z"/>
<path d="M465 1203 c-6 -18 9 -40 33 -48 26 -8 44 -43 67 -130 11 -44 25 -79
30 -77 10 3 8 252 -1 262 -3 2 -9 -2 -14 -10 -8 -12 -16 -12 -59 2 -44 14 -50
14 -56 1z"/>
<path d="M682 1188 c-9 -12 -9 -19 3 -34 12 -16 14 -75 15 -336 0 -231 -3
-317 -12 -320 -21 -7 1 -53 34 -72 95 -53 128 -69 135 -62 4 4 1 21 -7 39 -11
26 -13 103 -12 397 2 201 -1 371 -6 378 -13 20 -135 28 -150 10z"/>
<path d="M864 1185 c-8 -19 -1 -57 21 -115 23 -62 18 -249 -8 -277 -19 -22
-22 -65 -6 -95 6 -11 15 -84 20 -161 11 -157 27 -217 66 -242 48 -32 98 19
101 102 1 33 -12 45 -21 21 -9 -27 -15 1 -19 102 -5 114 -20 158 -66 197 l-26
22 27 21 c47 37 61 83 60 197 0 91 -3 109 -26 156 -21 41 -36 56 -67 70 -49
21 -49 21 -56 2z"/>
<path d="M2162 1175 c-60 -50 -93 -166 -107 -375 -6 -78 5 -249 20 -328 17
-89 60 -139 109 -126 22 5 26 12 26 43 0 20 -5 42 -11 48 -13 13 -28 236 -28
433 -1 148 11 246 32 268 14 13 11 62 -3 62 -5 0 -22 -11 -38 -25z"/>
<path d="M2260 1176 c0 -14 4 -27 9 -30 18 -12 53 -103 61 -159 9 -62 15 -75
28 -63 9 9 10 262 0 271 -3 3 -15 1 -27 -7 -16 -10 -23 -10 -33 0 -20 20 -38
14 -38 -12z"/>
<path d="M2530 1184 c-11 -12 -10 -32 5 -112 9 -53 21 -119 26 -147 4 -27 11
-64 14 -81 6 -28 3 -33 -29 -53 -22 -14 -36 -30 -36 -43 0 -19 0 -19 34 1 18
12 36 21 39 21 13 0 19 -74 8 -91 -32 -53 0 -51 53 4 93 96 130 140 113 134
-22 -8 -29 8 -52 123 -9 47 -18 86 -20 88 -2 2 -16 -4 -31 -14 l-27 -18 7 53
c6 47 5 53 -10 47 -11 -4 -15 -2 -11 8 11 27 -12 83 -36 90 -31 8 -33 8 -47
-10z"/>
<path d="M1214 1175 c-10 -24 14 -408 31 -513 21 -125 21 -125 -16 -120 -26 4
-32 1 -40 -20 -12 -30 2 -50 39 -54 35 -4 44 -41 37 -155 -7 -105 -14 -97 96
-108 84 -8 99 5 71 62 -18 35 -52 281 -66 468 -3 33 -13 147 -22 253 l-18 192
-30 0 c-17 0 -41 3 -53 6 -16 4 -25 1 -29 -11z"/>
<path d="M1475 1170 c-4 -6 2 -25 12 -43 16 -29 18 -69 21 -438 3 -357 1 -407
-12 -419 -9 -7 -16 -25 -16 -41 l0 -29 79 0 c59 0 84 4 95 16 20 19 20 17 -4
64 -19 37 -20 59 -20 470 l0 430 -74 0 c-41 0 -78 -5 -81 -10z"/>
<path d="M1670 1145 c0 -23 6 -37 19 -44 23 -13 46 -70 56 -138 5 -36 12 -53
21 -53 11 0 14 26 14 135 l0 135 -55 0 -55 0 0 -35z"/>
<path d="M1835 1143 c13 -61 17 -815 5 -827 -5 -5 -10 -25 -10 -43 0 -41 18
-43 107 -12 69 23 80 38 55 77 -15 23 -17 65 -21 400 -3 334 -1 375 13 391 9
10 14 25 10 35 -5 13 -21 16 -86 16 l-80 0 7 -37z"/>
<path d="M1176 904 c-3 -9 -6 -34 -6 -57 0 -23 -7 -87 -15 -142 -8 -55 -19
-134 -25 -175 -15 -105 -31 -172 -46 -195 -19 -27 -17 -61 4 -70 47 -19 71
-23 86 -12 15 11 14 16 -5 52 -20 36 -21 50 -16 140 4 55 14 147 22 204 20
131 27 258 16 265 -5 3 -12 -1 -15 -10z"/>
<path d="M460 891 c0 -4 9 -20 20 -34 28 -36 29 -177 1 -204 -26 -25 -12 -55
36 -77 30 -13 45 -15 66 -7 l27 11 -2 97 c-2 54 1 113 6 130 8 30 6 33 -20 43
-16 6 -46 20 -67 31 -40 20 -67 25 -67 10z"/>
</g>
</svg>
